<?xml version="1.0" standalone="no"?><!DOCTYPE svg PUBLIC "-//W3C//DTD SVG 1.1//EN" "http://www.w3.org/Graphics/SVG/1.1/DTD/svg11.dtd"><svg width="100%" height="100%" viewBox="0 0 100 100" version="1.1" xmlns="http://www.w3.org/2000/svg" xmlns:xlink="http://www.w3.org/1999/xlink" xml:space="preserve" style="fill-rule:evenodd;clip-rule:evenodd;stroke-linejoin:round;stroke-miterlimit:1.41421;"><g id="Group"><path id="Fill-5" d="M50,8.333c-22.975,0 -41.667,18.692 -41.667,41.667c0,22.975 18.692,41.667 41.667,41.667c22.975,0 41.667,-18.692 41.667,-41.667c0,-22.975 -18.692,-41.667 -41.667,-41.667M50,100c-27.571,0 -50,-22.429 -50,-50c0,-27.571 22.429,-50 50,-50c27.571,0 50,22.429 50,50c0,27.571 -22.429,50 -50,50" style="fill:#d0d1d1;"/><rect id="Rectangle-72" x="29.167" y="45.833" width="41.667" height="8.333" style="fill:#d0d1d1;"/><path id="Rectangle-72-Copy" d="M54.167,70.833l0,-41.666l-8.334,0l0,41.666l8.334,0Z" style="fill:#d0d1d1;"/></g></svg>