<?xml version="1.0" encoding="utf-8"?>
<!-- Generator: Adobe Illustrator 16.0.0, SVG Export Plug-In . SVG Version: 6.00 Build 0)  -->
<!DOCTYPE svg PUBLIC "-//W3C//DTD SVG 1.1//EN" "http://www.w3.org/Graphics/SVG/1.1/DTD/svg11.dtd">
<svg version="1.1" id="Lager_1" xmlns="http://www.w3.org/2000/svg" xmlns:xlink="http://www.w3.org/1999/xlink" x="0px" y="0px"
	 width="156.25px" height="208.75px" viewBox="0 0 156.25 208.75" enable-background="new 0 0 156.25 208.75" xml:space="preserve">
<path fill="none" stroke="#FFFFFF" stroke-width="9" stroke-linejoin="round" stroke-miterlimit="10" d="M143.751,42.25h-0.501
	H11.251H10.75l7.501,146.5c0,0-0.78,15.5,14.36,15.5s44.389,0,44.389,0s29.75,0,44.891,0c15.14,0,14.359-15.5,14.359-15.5
	L143.751,42.25z"/>
<line fill="none" stroke="#FFFFFF" stroke-width="9" stroke-linejoin="round" stroke-miterlimit="10" x1="54" y1="42.25" x2="57.5" y2="204.25"/>
<line fill="none" stroke="#FFFFFF" stroke-width="9" stroke-linejoin="round" stroke-miterlimit="10" x1="100.462" y1="42.25" x2="96.962" y2="204.25"/>
<path fill="#FFFFFF" d="M156.25,19.125c0,4.625-3.75,8.375-8.375,8.375H8.375C3.75,27.5,0,23.751,0,19.125l0,0
	C0,14.5,3.75,10.75,8.375,10.75h139.5C152.5,10.75,156.25,14.5,156.25,19.125L156.25,19.125z"/>
<path fill="none" stroke="#FFFFFF" stroke-width="6" stroke-miterlimit="10" d="M107.625,14c0,0-1.246-10.996-9.75-11
	c-7.209-0.004-16.918,0.063-19.793,0.012c0,0-13.248-0.016-20.582-0.012c-8.504,0.004-9.75,11-9.75,11l32.084,4.667L107.625,14z"/>
</svg>
