<?xml version="1.0" encoding="utf-8"?>
<!-- Generator: Adobe Illustrator 16.0.0, SVG Export Plug-In . SVG Version: 6.00 Build 0)  -->
<!DOCTYPE svg PUBLIC "-//W3C//DTD SVG 1.1//EN" "http://www.w3.org/Graphics/SVG/1.1/DTD/svg11.dtd">
<svg version="1.1" id="Lager_1" xmlns="http://www.w3.org/2000/svg" xmlns:xlink="http://www.w3.org/1999/xlink" x="0px" y="0px"
	 width="148.25px" height="148.25px" viewBox="0 0 148.25 148.25" enable-background="new 0 0 148.25 148.25" xml:space="preserve">
<circle fill="#4AB0D1" cx="74.625" cy="74.625" r="74.125"/>
<polygon fill="#FFFFFF" points="37.625,126.083 69.625,132.416 74.625,121.083 44.292,113.75 "/>
<polygon fill="#FFFFFF" points="49.292,101.71 78.791,108.25 84.791,96.75 56.125,89.25 "/>
<polygon fill="#FFFFFF" points="62.857,77.5 90.606,84.25 96.106,72.75 69.357,65 "/>
<path fill="#FFFFFF" d="M74.357,50.75l41.89,17.75c0,0,11.109,1.5,15.109,3l6.75-6.5l-55.25-29c0,0-3-1-1.75-6.25
	s-0.25-9.667-3-11.75c-2.323-1.761-6.75-3.75-6.75-3.75s-3.914,5.542-3.25,10c0.583,3.917,2.083,5.333,4.833,6.833
	S81.106,34,79.481,38.25S74.357,50.75,74.357,50.75z"/>
<circle fill="#FFFFFF" cx="96.106" cy="19.5" r="6"/>
</svg>
