<?xml version="1.0" encoding="utf-8"?>
<!-- Generator: Adobe Illustrator 16.0.0, SVG Export Plug-In . SVG Version: 6.00 Build 0)  -->
<!DOCTYPE svg PUBLIC "-//W3C//DTD SVG 1.1//EN" "http://www.w3.org/Graphics/SVG/1.1/DTD/svg11.dtd">
<svg version="1.1" id="Lager_1" xmlns="http://www.w3.org/2000/svg" xmlns:xlink="http://www.w3.org/1999/xlink" x="0px" y="0px"
	 width="306.614px" height="306.614px" viewBox="0 0 306.614 306.614" enable-background="new 0 0 306.614 306.614"
	 xml:space="preserve">
<path fill="#FFFFFF" d="M271.284,0H35.331C15.818,0,0,15.818,0,35.331v235.953c0,19.512,15.818,35.33,35.331,35.33h235.953
	c19.512,0,35.33-15.818,35.33-35.33V35.331C306.614,15.818,290.795,0,271.284,0z M229.059,228.035
	c-1.871,4.722-2.469,6.292-5.513,6.292H54.343c-3.045,0-5.513-2.818-5.513-6.292l2.664-6.788V94.493c0,0-1.468-14.205,14.217-14.205
	s44.096,0,44.096,0s8.878,1.745,18.349,6.791c9.47,5.046,22.492,12.149,22.492,12.149h60.668l9.766,0.296
	c0,0,11.717,0.002,12.127,17.017h31.623c3.045,0,5.513,2.817,5.513,6.292L229.059,228.035z"/>
<path fill="none" stroke="#FFFFFF" stroke-width="5.327" stroke-miterlimit="10" d="M45.647,234.236L89.53,124.321
	c0,0,3.783-7.78,13.117-7.78s23.333,0,23.333,0h19h27.667h27.333h18.333l30-5.638"/>
</svg>
