<?xml version="1.0" standalone="no"?><!DOCTYPE svg PUBLIC "-//W3C//DTD SVG 1.1//EN" "http://www.w3.org/Graphics/SVG/1.1/DTD/svg11.dtd"><svg width="100%" height="100%" viewBox="0 0 5325 5325" version="1.1" xmlns="http://www.w3.org/2000/svg" xmlns:xlink="http://www.w3.org/1999/xlink" xml:space="preserve" style="fill-rule:evenodd;clip-rule:evenodd;stroke-linejoin:round;stroke-miterlimit:1.41421;"><path d="M4709.79,0l-4096.39,0c-338.771,0 -613.387,274.617 -613.387,613.388l0,4096.39c0,338.75 274.616,613.383 613.387,613.383l4096.39,0c338.75,0 613.383,-274.633 613.383,-613.383l0,-4096.39c0,-338.77 -274.633,-613.387 -613.383,-613.387l0,0ZM4545.29,3799.95c0,138.746 -116.338,251.267 -259.846,251.267l-3247.69,0c-143.504,0 -259.842,-112.5 -259.842,-251.267l0,-1766.74c0,-138.787 116.338,-251.287 259.842,-251.287l620.313,0c59.341,-12.533 153.645,-65.521 241.2,-257.083c141.354,-309.184 294.029,-292.638 723.716,-292.534c429.667,-0.12 582.342,-16.65 723.696,292.534c87.554,191.545 181.875,244.55 241.217,257.083l697.587,0c143.505,0 259.842,112.483 259.842,251.287l0,1766.74l-0.033,0Z" style="fill:#5b4383;fill-rule:nonzero;"/><circle cx="2627.38" cy="2783.61" r="567.325" style="fill:none;stroke-width:156.25px;stroke:#5b4383;"/><circle cx="2627.38" cy="2783.61" r="913.038" style="fill:none;stroke-width:156.25px;stroke:#5b4383;"/></svg>