<?xml version="1.0" standalone="no"?><!DOCTYPE svg PUBLIC "-//W3C//DTD SVG 1.1//EN" "http://www.w3.org/Graphics/SVG/1.1/DTD/svg11.dtd"><svg width="100%" height="100%" viewBox="0 0 486 486" version="1.1" xmlns="http://www.w3.org/2000/svg" xmlns:xlink="http://www.w3.org/1999/xlink" xml:space="preserve" style="fill-rule:evenodd;clip-rule:evenodd;stroke-linejoin:round;stroke-miterlimit:1.41421;"><g><path d="M25,25l435.417,435.417" style="fill:#000;fill-rule:nonzero;"/><path d="M459.384,485.395l-2.06,-0.17l-2.038,-0.34l-2.003,-0.508l-1.954,-0.671l-1.892,-0.83l-1.817,-0.983l-1.73,-1.13l-1.631,-1.269l-1.52,-1.4l-435.417,-435.416l-1.399,-1.521l-1.269,-1.63l-1.13,-1.73l-0.984,-1.817l-0.83,-1.892l-0.671,-1.955l-0.507,-2.003l-0.34,-2.038l-0.171,-2.059l0,-2.066l0.171,-2.059l0.34,-2.038l0.507,-2.003l0.671,-1.955l0.83,-1.892l0.984,-1.817l1.13,-1.73l1.269,-1.63l1.399,-1.521l1.521,-1.399l1.63,-1.269l1.73,-1.13l1.817,-0.984l1.892,-0.83l1.955,-0.671l2.003,-0.507l2.038,-0.34l2.059,-0.171l2.066,0l2.059,0.171l2.038,0.34l2.003,0.507l1.955,0.671l1.892,0.83l1.817,0.984l1.73,1.13l1.63,1.269l1.521,1.399l435.416,435.417l1.4,1.52l1.269,1.631l1.13,1.73l0.983,1.817l0.83,1.892l0.671,1.954l0.508,2.003l0.34,2.038l0.17,2.06l0,2.066l-0.17,2.059l-0.34,2.038l-0.508,2.003l-0.671,1.954l-0.83,1.893l-0.983,1.817l-1.13,1.73l-1.269,1.63l-1.4,1.52l-1.52,1.4l-1.63,1.269l-1.73,1.13l-1.817,0.983l-1.893,0.83l-1.954,0.671l-2.003,0.508l-2.038,0.34l-2.059,0.17l-2.066,0Z" style="fill:#000;"/></g><g><path d="M460.417,25l-435.417,435.417" style="fill:#000;fill-rule:nonzero;"/><path d="M23.967,485.395l-2.059,-0.17l-2.038,-0.34l-2.003,-0.508l-1.955,-0.671l-1.892,-0.83l-1.817,-0.983l-1.73,-1.13l-1.63,-1.269l-1.521,-1.4l-1.399,-1.52l-1.269,-1.63l-1.13,-1.73l-0.984,-1.817l-0.83,-1.893l-0.671,-1.954l-0.507,-2.003l-0.34,-2.038l-0.171,-2.059l0,-2.066l0.171,-2.06l0.34,-2.038l0.507,-2.003l0.671,-1.954l0.83,-1.892l0.984,-1.817l1.13,-1.73l1.269,-1.631l1.399,-1.52l435.417,-435.417l1.52,-1.399l1.631,-1.269l1.73,-1.13l1.817,-0.984l1.892,-0.83l1.954,-0.671l2.003,-0.507l2.038,-0.34l2.06,-0.171l2.066,0l2.059,0.171l2.038,0.34l2.003,0.507l1.954,0.671l1.893,0.83l1.817,0.984l1.73,1.13l1.63,1.269l1.52,1.399l1.4,1.521l1.269,1.63l1.13,1.73l0.983,1.817l0.83,1.892l0.671,1.955l0.508,2.003l0.34,2.038l0.17,2.059l0,2.066l-0.17,2.059l-0.34,2.038l-0.508,2.003l-0.671,1.955l-0.83,1.892l-0.983,1.817l-1.13,1.73l-1.269,1.63l-1.4,1.521l-435.416,435.416l-1.521,1.4l-1.63,1.269l-1.73,1.13l-1.817,0.983l-1.892,0.83l-1.955,0.671l-2.003,0.508l-2.038,0.34l-2.059,0.17l-2.066,0Z" style="fill:#000;"/></g></svg>