<?xml version="1.0" encoding="utf-8"?>
<!-- Generator: Adobe Illustrator 16.0.0, SVG Export Plug-In . SVG Version: 6.00 Build 0)  -->
<!DOCTYPE svg PUBLIC "-//W3C//DTD SVG 1.1//EN" "http://www.w3.org/Graphics/SVG/1.1/DTD/svg11.dtd">
<svg version="1.1" id="Lager_1" xmlns="http://www.w3.org/2000/svg" xmlns:xlink="http://www.w3.org/1999/xlink" x="0px" y="0px"
	 width="151.25px" height="151.25px" viewBox="0 0 151.25 151.25" enable-background="new 0 0 151.25 151.25" xml:space="preserve">
<circle fill="none" stroke="#6A5081" stroke-width="3" stroke-miterlimit="10" cx="75.625" cy="75.625" r="74.125"/>
<polygon fill="none" stroke="#6A5081" stroke-width="3" stroke-miterlimit="10" points="38.625,127.084 70.625,133.416 
	75.625,122.084 45.292,114.75 "/>
<polygon fill="none" stroke="#6A5081" stroke-width="3" stroke-miterlimit="10" points="50.292,102.711 79.792,109.25 85.792,97.75 
	57.125,90.25 "/>
<polygon fill="none" stroke="#6A5081" stroke-width="3" stroke-miterlimit="10" points="61.542,78.5 89.292,85.25 94.792,73.75 
	68.042,66 "/>
<path fill="none" stroke="#6A5081" stroke-width="3" stroke-miterlimit="10" d="M73.042,51.75l41.891,17.75c0,0,11.109,1.5,15.109,3
	l6.75-6.5l-55.25-29c0,0-3-1-1.75-6.25s-0.25-9.667-3-11.75c-2.324-1.761-6.75-3.75-6.75-3.75s-3.914,5.542-3.25,10
	c0.583,3.917,2.083,5.333,4.833,6.833S79.792,35,78.167,39.25S73.042,51.75,73.042,51.75z"/>
<circle fill="none" stroke="#6A5081" stroke-width="3" stroke-miterlimit="10" cx="94.792" cy="20.5" r="6"/>
</svg>
