<?xml version="1.0" standalone="no"?><!DOCTYPE svg PUBLIC "-//W3C//DTD SVG 1.1//EN" "http://www.w3.org/Graphics/SVG/1.1/DTD/svg11.dtd"><svg width="100%" height="100%" viewBox="0 0 100 67" version="1.1" xmlns="http://www.w3.org/2000/svg" xmlns:xlink="http://www.w3.org/1999/xlink" xml:space="preserve" style="fill-rule:evenodd;clip-rule:evenodd;stroke-linejoin:round;stroke-miterlimit:1.41421;"><path id="Icon" d="M62.5,66.667c-1.667,0 -3.175,-0.992 -3.829,-2.525l-21.171,-49.396l-8.671,20.229c-0.654,1.533 -2.162,2.525 -3.829,2.525l-20.833,0c-2.3,0 -4.167,-1.867 -4.167,-4.167c0,-2.3 1.867,-4.166 4.167,-4.166l18.087,0l11.417,-26.642c0.654,-1.533 2.162,-2.525 3.829,-2.525c1.667,0 3.175,0.992 3.829,2.525l21.171,49.396l8.671,-20.229c0.654,-1.534 2.162,-2.525 3.829,-2.525l20.833,0c2.305,0 4.167,1.866 4.167,4.166c0,2.3 -1.862,4.167 -4.167,4.167l-18.087,0l-11.417,26.642c-0.654,1.533 -2.162,2.525 -3.829,2.525" style="fill:#d0d1d1;"/></svg>