<?xml version="1.0" standalone="no"?><!DOCTYPE svg PUBLIC "-//W3C//DTD SVG 1.1//EN" "http://www.w3.org/Graphics/SVG/1.1/DTD/svg11.dtd"><svg width="100%" height="100%" viewBox="0 0 1434 796" version="1.1" xmlns="http://www.w3.org/2000/svg" xmlns:xlink="http://www.w3.org/1999/xlink" xml:space="preserve" style="fill-rule:evenodd;clip-rule:evenodd;stroke-linejoin:round;stroke-miterlimit:1.41421;"><g><path d="M535.983,316.854c-17.166,0 -28.85,4.771 -41.008,15.5c-8.583,-10.012 -20.983,-15.5 -35.529,-15.5c-12.875,0 -20.983,3.817 -28.85,10.492c-19.4,0 -38.629,-5.959 -38.629,-5.959l0,114.688l38.629,0l0,-73.917c5.725,-7.391 11.446,-10.25 17.404,-10.25c12.638,0 20.746,7.867 20.746,24.317l0,59.85l38.629,0l0,-66.046c0,-2.862 -0.242,-5.725 -0.479,-8.583c5.725,-6.917 11.683,-9.538 17.646,-9.538c12.871,0 20.741,7.867 20.741,24.317l0,59.85l38.867,0l0,-66.046c0,-32.904 -20.504,-53.175 -48.167,-53.175ZM653.508,407.225c-8.583,0 -16.929,-2.383 -24.083,-10.729l0,-35.767c7.154,-8.346 15.5,-10.967 24.083,-10.967c15.738,0 27.184,12.875 27.184,28.613c0,16.212 -11.446,28.85 -27.184,28.85ZM661.138,318.287c-12.638,0 -23.125,3.338 -31.713,8.821l0,-53.729c0,0 -19.225,5.963 -38.625,5.963l0,156.733c19.4,0 38.625,-5.963 38.625,-5.963c8.588,5.484 19.075,8.821 31.713,8.821c31.237,0 57.466,-25.987 57.466,-60.558c0,-34.338 -26.229,-60.088 -57.466,-60.088ZM930.463,318.525c-17.171,0 -29.567,5.483 -39.821,14.304l0,-12.396c0,0 -19.229,5.963 -38.625,5.963l0,109.679l38.625,0l0,-66.046c9.062,-9.062 20.983,-14.071 39.821,-14.783l0,-36.721ZM1018.53,396.017c-7.154,8.345 -15.495,10.729 -24.079,10.729c-15.737,0 -27.183,-12.634 -27.183,-28.613c0,-15.975 11.446,-28.85 27.183,-28.85c8.584,0 16.925,2.625 24.079,10.967l0,35.767ZM1018.53,326.633c-8.583,-5.483 -19.075,-8.821 -31.712,-8.821c-31.233,0 -57.463,25.75 -57.463,60.321c0,34.338 26.23,60.325 57.463,60.325c12.637,0 23.129,-3.337 31.712,-8.825c0,0 19.23,6.442 38.63,6.442l0,-115.642c0,0 -19.4,6.2 -38.63,6.2ZM188.129,407.225c-8.583,0 -16.929,-2.383 -24.083,-10.729l0,-35.767c7.154,-8.346 15.5,-10.967 24.083,-10.967c15.738,0 27.179,12.875 27.179,28.613c0,16.212 -11.441,28.85 -27.179,28.85ZM195.758,318.287c-12.637,0 -23.129,3.338 -31.712,8.821l0,-53.729c0,0 -19.229,5.963 -38.625,5.963l0,156.733c19.396,0 38.625,-5.963 38.625,-5.963c8.583,5.484 19.075,8.821 31.712,8.821c31.238,0 57.463,-25.987 57.463,-60.558c0,-34.338 -26.225,-60.088 -57.463,-60.088ZM784.713,406.271c-15.738,0 -26.23,-12.4 -26.23,-27.896c0,-15.025 10.492,-27.183 26.23,-27.183c15.5,0 25.987,12.158 25.987,27.183c0,15.496 -10.487,27.896 -25.987,27.896ZM784.475,317.812c-36.483,0 -62.712,25.513 -62.712,60.321c0,35.292 26.229,61.517 62.712,61.517c36.479,0 62.708,-26.225 62.708,-61.517c0,-34.808 -26.229,-60.321 -62.708,-60.321ZM345.558,396.017c-7.15,8.345 -15.495,10.729 -24.079,10.729c-15.737,0 -27.183,-12.634 -27.183,-28.613c0,-15.975 11.446,-28.85 27.183,-28.85c8.584,0 16.929,2.625 24.079,10.967l0,35.767ZM313.85,317.812c-31.237,0 -57.467,25.75 -57.467,60.321c0,34.338 26.23,60.325 57.467,60.325c12.638,0 23.125,-3.337 31.708,-8.825c0,0 19.23,6.442 38.63,6.442l0,-115.642c0,0 -19.4,6.2 -38.63,6.2c-8.583,-5.483 -19.07,-8.821 -31.708,-8.821Z" style="fill:#7e5fa9;fill-rule:nonzero;"/><path d="M1054.93,473.671c-2.325,3.375 -4.566,6.975 -6.72,10.816c18.745,6.38 38.087,11.238 57.841,14.463c5.629,-2.342 11.171,-3.517 16.521,-3.517c6.917,0 12.433,2.671 16.771,7.367c8.046,0.55 16.137,0.837 24.271,0.837c11.7,0 23.487,-0.612 35.321,-1.787c1.066,-4.208 2.137,-8.458 3.216,-12.771c-12.908,1.45 -25.771,2.158 -38.537,2.158c-37.467,0 -74.1,-6.116 -108.684,-17.566ZM1146.85,515.637c1.438,3.796 2.588,8.03 3.488,12.613c5.937,0.279 11.891,0.429 17.854,0.429c8.008,0 16.037,-0.275 24.071,-0.779c1.075,-4.154 2.162,-8.371 3.254,-12.638c-16.271,1.196 -32.521,1.305 -48.667,0.375ZM1231.34,510.892c-8.13,1.387 -16.263,2.512 -24.4,3.362l-0.021,0.096l2.346,12.112c7.729,-0.829 15.462,-1.87 23.183,-3.17l-1.108,-12.4ZM1152.09,540.654c0.379,4 0.621,8.158 0.729,12.454c6.854,0.346 13.721,0.525 20.6,0.525c4.05,0 8.104,-0.066 12.158,-0.187c1.088,-4.121 2.188,-8.3 3.3,-12.546c-5.15,0.196 -10.296,0.337 -15.433,0.337c-7.133,0 -14.254,-0.195 -21.354,-0.583ZM1103.85,657.187l3.029,16.805l7.654,0l-0.608,-15.034c-3.362,-0.554 -6.721,-1.145 -10.075,-1.771ZM1152.23,577.771c8.783,0.533 17.592,0.821 26.425,0.821c0.075,0 0.154,-0.005 0.229,-0.005c1.096,-4.07 2.204,-8.216 3.329,-12.437c-9.825,0.083 -19.629,-0.183 -29.4,-0.783c-0.104,4.07 -0.304,8.216 -0.583,12.404ZM1145.43,651.096c4.434,0.425 8.875,0.808 13.321,1.116c1.084,-3.925 2.209,-8.004 3.367,-12.216c-5.192,-0.338 -10.379,-0.754 -15.554,-1.254c-0.434,4.683 -0.809,8.775 -1.134,12.354ZM1143.46,673.992l9.33,0c0.854,-3.15 1.754,-6.442 2.691,-9.85c-3.708,-0.313 -7.416,-0.655 -11.116,-1.046c-0.721,8.291 -0.905,10.896 -0.905,10.896ZM1147.69,626.725c5.908,0.504 11.829,0.9 17.758,1.187c1.096,-3.983 2.217,-8.07 3.371,-12.266c-6.671,-0.288 -13.325,-0.704 -19.963,-1.271c-0.421,4.412 -0.808,8.537 -1.166,12.35ZM1150.01,602.287c7.366,0.546 14.758,0.905 22.158,1.092c1.096,-4.017 2.212,-8.125 3.346,-12.321c-8.125,-0.15 -16.229,-0.529 -24.317,-1.121c-0.417,4.325 -0.812,8.442 -1.187,12.35ZM1233.64,536.642c-7.292,1.104 -14.588,2.008 -21.884,2.708l2.363,12.225c6.879,-0.683 13.754,-1.533 20.629,-2.563l-1.108,-12.37ZM1164.99,466.25c-1.354,0.029 -2.704,0.05 -4.055,0.062c-30.374,0.28 -60.566,-3.87 -89.62,-12.079c-3.217,3.146 -6.35,6.513 -9.379,10.171c31.095,9.413 63.533,14.317 96.191,14.317c0.971,0 5.729,-0.046 7.134,-0.075c13.441,-0.292 26.924,-1.429 40.329,-3.354c1.062,-4.3 2.133,-8.638 3.208,-13.034c-14.542,2.321 -29.2,3.675 -43.808,3.992ZM1222.59,252.729c-1.192,4.221 -2.405,8.429 -3.634,12.617c11.217,-0.646 22.421,-0.875 33.596,-0.688c0.813,-4.104 1.621,-8.229 2.429,-12.375c-10.775,-0.237 -21.579,-0.075 -32.391,0.446ZM1232.73,214.667c9.771,-0.034 19.521,0.25 29.25,0.787c0.754,-4.079 1.508,-8.179 2.258,-12.292c-9.462,-0.55 -18.954,-0.85 -28.458,-0.875c-0.992,4.092 -2.008,8.221 -3.05,12.38ZM1229.48,227.35c-1.083,4.146 -2.187,8.304 -3.317,12.467c10.421,-0.3 20.821,-0.225 31.196,0.162c0.784,-4.092 1.563,-8.2 2.342,-12.333c-10.05,-0.409 -20.125,-0.508 -30.221,-0.296ZM1238.73,189.812c9.254,0.167 18.488,0.559 27.696,1.213c0.733,-4.075 1.458,-8.163 2.179,-12.267c-9,-0.658 -18.025,-1.1 -27.066,-1.304c-0.9,4.05 -1.838,8.175 -2.809,12.358ZM1249.05,147.246c-2.108,-0.417 -3.021,-2.129 -2.479,-4.879c0.412,-2.088 0.487,-5.642 -1.375,-8.146c-3.263,-4.396 -11.246,-4.738 -11.246,-4.738c0,0 -2.692,6.788 0.571,11.184c1.917,2.583 5.696,3.833 8.054,4.295c2.933,0.58 3.342,2.438 3.3,4.096c-0.108,4.092 0.108,6.896 -1.292,14.067c12.121,1.854 27.234,4.417 42.605,7.754l15.008,0.521l4.329,-7.258c-25.787,-10.296 -52.121,-15.842 -57.475,-16.896ZM1210.95,291.371c12.217,-1.134 24.425,-1.75 36.608,-1.825c0.838,-4.113 1.671,-8.25 2.505,-12.409c-11.671,0.005 -23.371,0.48 -35.08,1.425c-1.329,4.313 -2.67,8.588 -4.033,12.809ZM1238.22,587.825c-5.579,0.675 -11.163,1.279 -16.746,1.746l2.371,12.233c5.158,-0.446 10.321,-1 15.483,-1.621l-1.108,-12.358ZM1235.94,562.287c-6.441,0.871 -12.879,1.592 -19.32,2.171l2.366,12.234c6.021,-0.559 12.042,-1.234 18.059,-2.042l-1.105,-12.363ZM1240.5,613.3c-4.729,0.512 -9.454,0.946 -14.179,1.312l2.375,12.275c4.3,-0.35 8.604,-0.758 12.908,-1.22l-1.104,-12.367ZM1236.03,664.746l1.808,9.246l8.121,0l-0.908,-9.946c-3.025,0.262 -5.996,0.496 -9.021,0.7ZM1242.78,638.712c-3.866,0.375 -7.737,0.7 -11.6,0.984l2.371,12.25c3.442,-0.263 6.888,-0.554 10.333,-0.884l-1.104,-12.35ZM1111.94,609.75c-5.788,-0.958 -11.559,-2.025 -17.313,-3.196l2.383,13.129c5.13,0.992 10.275,1.909 15.434,2.734l-0.504,-12.667ZM1209.86,500.6c6.745,-0.875 13.504,-1.95 20.266,-3.221l-1.112,-12.4c-5.471,1.05 -10.938,1.975 -16.396,2.754l-2.758,12.867ZM1112.92,634.35c-4.575,-0.754 -9.142,-1.567 -13.692,-2.45l2.371,13.067c3.933,0.725 7.875,1.42 11.821,2.05l-0.5,-12.667ZM1225.27,392.65c0.975,-4.267 1.95,-8.567 2.925,-12.9c-10.567,1.358 -21.167,3.212 -31.767,5.621c-12.554,2.854 -25.104,4.666 -37.566,5.512c-4.984,4.775 -10.125,9.034 -15.367,12.95c18.375,-0.075 37.033,-2.133 55.683,-6.371c8.675,-1.975 17.379,-3.562 26.092,-4.812ZM1210.25,421.754c2.896,-0.658 5.796,-1.258 8.696,-1.829c1.025,-4.354 2.05,-8.763 3.079,-13.196c-4.846,0.863 -9.691,1.838 -14.525,2.938c-20.008,4.55 -40.008,6.729 -59.716,6.729c-7.2,0 -14.359,-0.304 -21.463,-0.875c-5.704,3.604 -11.438,7.062 -17.133,10.579c12.687,1.767 25.575,2.692 38.591,2.692c20.609,0 41.546,-2.284 62.471,-7.038ZM1212.28,447.962c1.058,-4.404 2.125,-8.85 3.196,-13.337c-40.488,8.758 -81.525,8.958 -121.004,0.954c-4.471,3.05 -8.875,6.263 -13.175,9.758c23.283,5.605 47.15,8.48 71.208,8.48c19.875,0 39.879,-1.946 59.775,-5.855ZM1221.56,446c1.295,-0.296 2.595,-0.563 3.891,-0.838l-1.096,-12.225l-2.795,13.063ZM1244.96,302.225c-12.833,0.325 -25.687,1.271 -38.541,2.808c-1.521,4.45 -3.054,8.817 -4.6,13.084c13.516,-1.825 27.041,-2.959 40.537,-3.4c0.867,-4.142 1.738,-8.305 2.604,-12.492ZM1258.27,134.829c3.091,0.608 6.091,-1.404 6.7,-4.496c0.608,-3.091 -1.404,-6.087 -4.496,-6.7c-3.092,-0.608 -6.092,1.404 -6.7,4.496c-0.608,3.092 1.404,6.092 4.496,6.7ZM1231.24,366.158c0.933,-4.204 1.866,-8.429 2.8,-12.691c-16.167,1.412 -32.425,3.912 -48.684,7.608c-1.05,0.237 -2.1,0.446 -3.145,0.667c-3.196,5.25 -6.534,10.033 -9.992,14.433c5.287,-0.821 10.587,-1.808 15.883,-3.008c14.4,-3.275 28.804,-5.592 43.138,-7.009ZM1239.62,327.617c-14.396,0.787 -28.817,2.404 -43.204,4.82c-0.388,0.98 -0.771,1.971 -1.158,2.938c-1.496,3.742 -3.05,7.292 -4.655,10.696c15.417,-2.921 30.875,-4.871 46.317,-5.854c0.9,-4.171 1.8,-8.371 2.7,-12.6ZM1215.62,473.712c4.071,-0.712 8.125,-1.52 12.171,-2.383l-1.113,-12.437c-2.741,0.595 -5.491,1.154 -8.245,1.679l-2.813,13.141ZM1000.67,673.992l8.167,0c0.92,-2.58 4.029,-11.45 5.895,-16.8c-3.529,-1.296 -6.85,-2.638 -10.358,-4.009c-0.904,5.038 -3.15,17.55 -3.704,20.809ZM1109.01,535.95c-6.625,-1.1 -13.225,-2.358 -19.795,-3.792c-3.305,5.542 -5.334,10.213 -5.838,11.409c8.658,1.958 17.375,3.645 26.138,5.033l-0.505,-12.65ZM1096.46,521.883c4.017,0.767 8.042,1.475 12.075,2.113l-0.479,-12.079c-4.371,2.387 -8.262,6.008 -11.596,9.966ZM1043.09,494.454c-1.696,3.604 -3.317,7.417 -4.867,11.429c13.637,4.934 27.504,9.075 41.542,12.417c3.662,-3.917 7.35,-7.329 11.05,-10.229c-16.155,-3.459 -32.092,-7.996 -47.725,-13.617ZM1109.99,560.537c-8.242,-1.358 -16.438,-2.962 -24.584,-4.812l2.404,13.254c7.521,1.613 15.084,3.021 22.679,4.229l-0.499,-12.671ZM1110.96,585.146c-7.009,-1.159 -13.992,-2.471 -20.942,-3.963l2.387,13.159c6.33,1.287 12.68,2.454 19.059,3.47l-0.504,-12.666ZM1031.08,527.983c10.863,4.042 21.867,7.617 32.983,10.709c2.5,-3.859 5.034,-7.45 7.592,-10.784c-12.5,-3.333 -24.862,-7.287 -37.046,-11.85c-1.237,3.8 -2.416,7.767 -3.529,11.925ZM1010.81,619.379c5.137,1.971 10.295,3.871 15.483,5.675c1.325,-3.621 2.758,-7.508 4.283,-11.642c-5.787,-2.012 -11.546,-4.137 -17.271,-6.362c-0.883,4.292 -1.712,8.404 -2.495,12.329ZM1006.35,642.454c3.992,1.538 8,3.013 12.021,4.454c1.246,-3.475 2.641,-7.346 4.212,-11.666c-4.641,-1.663 -9.266,-3.384 -13.871,-5.18c-0.862,4.442 -1.645,8.575 -2.362,12.392ZM1015.52,596.396c6.246,2.387 12.529,4.641 18.85,6.766c1.371,-3.691 2.813,-7.566 4.329,-11.629c-6.896,-2.312 -13.754,-4.771 -20.562,-7.404c-0.909,4.217 -1.784,8.304 -2.617,12.267ZM1025.62,550.683c8.766,3.304 17.621,6.325 26.55,9.05c1.941,-3.908 3.921,-7.625 5.929,-11.166c-9.979,-2.98 -19.863,-6.334 -29.638,-10.059c-0.97,4.125 -1.925,8.2 -2.841,12.175ZM1020.46,573.5c7.329,2.783 14.708,5.383 22.141,7.783c1.575,-3.971 3.188,-7.791 4.829,-11.479c-8.141,-2.612 -16.225,-5.45 -24.233,-8.529c-0.942,4.167 -1.858,8.25 -2.737,12.225Z" style="fill:#231f20;fill-rule:nonzero;"/></g></svg>