<?xml version="1.0" standalone="no"?><!DOCTYPE svg PUBLIC "-//W3C//DTD SVG 1.1//EN" "http://www.w3.org/Graphics/SVG/1.1/DTD/svg11.dtd"><svg width="100%" height="100%" viewBox="0 0 100 67" version="1.1" xmlns="http://www.w3.org/2000/svg" xmlns:xlink="http://www.w3.org/1999/xlink" xml:space="preserve" style="fill-rule:evenodd;clip-rule:evenodd;stroke-linejoin:round;stroke-miterlimit:1.41421;"><g id="Icon"><path id="Fill-1" d="M95.833,8.333l-8.333,0c-2.304,0 -4.167,-1.866 -4.167,-4.166c0,-2.3 1.863,-4.167 4.167,-4.167l8.333,0c2.305,0 4.167,1.867 4.167,4.167c0,2.3 -1.862,4.166 -4.167,4.166" style="fill:#d0d1d1;"/><path id="Fill-3" d="M70.833,8.333l-66.666,0c-2.3,0 -4.167,-1.866 -4.167,-4.166c0,-2.3 1.867,-4.167 4.167,-4.167l66.666,0c2.305,0 4.167,1.867 4.167,4.167c0,2.3 -1.862,4.166 -4.167,4.166" style="fill:#d0d1d1;"/><path id="Fill-5" d="M12.5,37.5l-8.333,0c-2.3,0 -4.167,-1.867 -4.167,-4.167c0,-2.3 1.867,-4.166 4.167,-4.166l8.333,0c2.3,0 4.167,1.866 4.167,4.166c0,2.3 -1.867,4.167 -4.167,4.167" style="fill:#d0d1d1;"/><path id="Fill-7" d="M95.833,37.5l-66.666,0c-2.3,0 -4.167,-1.867 -4.167,-4.167c0,-2.3 1.867,-4.166 4.167,-4.166l66.666,0c2.305,0 4.167,1.866 4.167,4.166c0,2.3 -1.862,4.167 -4.167,4.167" style="fill:#d0d1d1;"/><path id="Fill-9" d="M95.833,66.667l-8.333,0c-2.304,0 -4.167,-1.863 -4.167,-4.167c0,-2.304 1.863,-4.167 4.167,-4.167l8.333,0c2.305,0 4.167,1.863 4.167,4.167c0,2.304 -1.862,4.167 -4.167,4.167" style="fill:#d0d1d1;"/><path id="Fill-11" d="M70.833,66.667l-66.666,0c-2.3,0 -4.167,-1.863 -4.167,-4.167c0,-2.304 1.867,-4.167 4.167,-4.167l66.666,0c2.305,0 4.167,1.863 4.167,4.167c0,2.304 -1.862,4.167 -4.167,4.167" style="fill:#d0d1d1;"/></g></svg>