<?xml version="1.0" encoding="utf-8"?>
<!-- Generator: Adobe Illustrator 16.0.0, SVG Export Plug-In . SVG Version: 6.00 Build 0)  -->
<!DOCTYPE svg PUBLIC "-//W3C//DTD SVG 1.1//EN" "http://www.w3.org/Graphics/SVG/1.1/DTD/svg11.dtd">
<svg version="1.1" id="Lager_1" xmlns="http://www.w3.org/2000/svg" xmlns:xlink="http://www.w3.org/1999/xlink" x="0px" y="0px"
	 width="357.545px" height="382.964px" viewBox="0 0 357.545 382.964" enable-background="new 0 0 357.545 382.964"
	 xml:space="preserve">
<path fill="none" stroke="#FFFFFF" stroke-width="12" stroke-miterlimit="10" d="M23.419,53.768c0,0-33.606,50.044-7.463,118.103
	c26.144,68.058,99.421,138.325,99.421,138.325s54.567,56.176,125.602,65.465c71.038,9.285,100.757-34.064,100.757-34.064
	s20.359-23.938,2.416-48.609c-17.942-24.672-57.576-47.835-57.576-47.835s-27.616-23.167-62.031,21.69
	c-34.414,44.859-82.252-31.4-84.495-32.904c-2.242-1.51-68.792-73.282-31.4-100.197c37.395-26.915,43.353-38.863,29.158-68.021
	c-14.192-29.157-38.093-83.023-79.236-48.609C17.428,51.526,23.419,53.768,23.419,53.768z"/>
</svg>
