<?xml version="1.0" encoding="utf-8"?>
<!-- Generator: Adobe Illustrator 16.0.0, SVG Export Plug-In . SVG Version: 6.00 Build 0)  -->
<!DOCTYPE svg PUBLIC "-//W3C//DTD SVG 1.1//EN" "http://www.w3.org/Graphics/SVG/1.1/DTD/svg11.dtd">
<svg version="1.1" id="Lager_1" xmlns="http://www.w3.org/2000/svg" xmlns:xlink="http://www.w3.org/1999/xlink" x="0px" y="0px"
	 width="148.25px" height="148.25px" viewBox="0 0 148.25 148.25" enable-background="new 0 0 148.25 148.25" xml:space="preserve">
<circle fill="#FAD3D9" cx="74.125" cy="74.125" r="74.125"/>
<polygon fill="#FFFFFF" points="37.125,125.583 69.125,131.916 74.125,120.583 43.792,113.25 "/>
<polygon fill="#FFFFFF" points="48.792,101.21 78.292,107.75 84.292,96.25 55.625,88.75 "/>
<polygon fill="#FFFFFF" points="62.357,77 90.106,83.75 95.606,72.25 68.857,64.5 "/>
<path fill="#FFFFFF" d="M73.857,50.25L115.747,68c0,0,11.109,1.5,15.109,3l6.75-6.5l-55.25-29c0,0-3-1-1.75-6.25
	s-0.25-9.667-3-11.75c-2.322-1.761-6.749-3.75-6.749-3.75s-3.914,5.542-3.25,10c0.583,3.917,2.083,5.333,4.833,6.833
	c2.75,1.5,8.166,2.917,6.541,7.167S73.857,50.25,73.857,50.25z"/>
<circle fill="#FFFFFF" cx="95.606" cy="19" r="6"/>
</svg>
