<?xml version="1.0" encoding="utf-8"?>
<!-- Generator: Adobe Illustrator 16.0.0, SVG Export Plug-In . SVG Version: 6.00 Build 0)  -->
<!DOCTYPE svg PUBLIC "-//W3C//DTD SVG 1.1//EN" "http://www.w3.org/Graphics/SVG/1.1/DTD/svg11.dtd">
<svg version="1.1" id="Lager_1" xmlns="http://www.w3.org/2000/svg" xmlns:xlink="http://www.w3.org/1999/xlink" x="0px" y="0px"
	 width="416.315px" height="417.057px" viewBox="0 0 416.315 417.057" enable-background="new 0 0 416.315 417.057"
	 xml:space="preserve">
<circle fill="none" stroke="#FFFFFF" stroke-width="12" stroke-miterlimit="10" cx="320.815" cy="321.557" r="89.5"/>
<path fill="none" stroke="#FFFFFF" stroke-width="12" stroke-linecap="round" stroke-miterlimit="10" d="M201.861,338.967H23.479
	c0,0-17.355,2.303-17.355-17.41s0-33.211,0-33.211s-2.894-10.125,19.283-19.285c22.178-9.16,95.459-39.533,100.28-47.729
	s7.231-26.998,7.231-26.998s-24.105-30.855-26.033-46.765c0,0-18.928-14.463-2.955-35.194V64.162c0,0-3.795-28.927,21.757-45.801
	s41.25-11.571,45.454-11.571"/>
<path fill="none" stroke="#FFFFFF" stroke-width="12" stroke-linecap="round" stroke-miterlimit="10" d="M244.77,244.955
	c-22.177-9.16-24.649-15.428-29.471-23.625c-4.821-8.195-7.232-26.998-7.232-26.998s24.106-30.855,26.034-46.765
	c0,0,18.927-14.463,2.955-35.194V64.162c0,0,3.795-28.927-21.757-45.801C189.746,1.487,174.05,6.79,169.845,6.79"/>
<line fill="none" stroke="#FFFFFF" stroke-width="12" stroke-linecap="round" stroke-miterlimit="10" x1="271.158" y1="321.557" x2="370.474" y2="321.557"/>
<line fill="none" stroke="#FFFFFF" stroke-width="12" stroke-linecap="round" stroke-miterlimit="10" x1="320.815" y1="271.898" x2="320.815" y2="371.215"/>
</svg>
