<?xml version="1.0" encoding="utf-8"?>
<!-- Generator: Adobe Illustrator 16.0.0, SVG Export Plug-In . SVG Version: 6.00 Build 0)  -->
<!DOCTYPE svg PUBLIC "-//W3C//DTD SVG 1.1//EN" "http://www.w3.org/Graphics/SVG/1.1/DTD/svg11.dtd">
<svg version="1.1" id="Lager_1" xmlns="http://www.w3.org/2000/svg" xmlns:xlink="http://www.w3.org/1999/xlink" x="0px" y="0px"
	 width="306.614px" height="306.614px" viewBox="0 0 306.614 306.614" enable-background="new 0 0 306.614 306.614"
	 xml:space="preserve">
<path fill="#FFFFFF" d="M271.283,0H35.331C15.818,0,0,15.818,0,35.331v235.952c0,19.512,15.818,35.331,35.331,35.331h235.952
	c19.512,0,35.331-15.819,35.331-35.331V35.331C306.614,15.818,290.795,0,271.283,0z M261.808,218.877
	c0,7.992-6.701,14.473-14.967,14.473H59.774c-8.266,0-14.967-6.48-14.967-14.473V117.113c0-7.994,6.701-14.474,14.967-14.474h32.263
	h3.467c3.418-0.722,8.85-3.774,13.893-14.808c8.142-17.809,16.936-16.856,41.686-16.85c24.749-0.007,33.543-0.959,41.685,16.85
	c5.043,11.033,10.476,14.086,13.894,14.808h3.467h36.714c8.266,0,14.967,6.479,14.967,14.474V218.877z"/>
<circle fill="none" stroke="#FFFFFF" stroke-width="9" stroke-linejoin="round" stroke-miterlimit="10" cx="151.337" cy="160.336" r="32.678"/>
<circle fill="none" stroke="#FFFFFF" stroke-width="9" stroke-linejoin="round" stroke-miterlimit="10" cx="151.337" cy="160.336" r="52.591"/>
</svg>
